<svg xmlns="http://www.w3.org/2000/svg" viewBox="0 0 128 128" role="img" aria-labelledby="title desc">
  <title id="title">Cloud Clipboard</title>
  <desc id="desc">A clipboard icon with a cloud sync badge.</desc>
  <defs>
    <linearGradient id="bg" x1="16" y1="10" x2="112" y2="118" gradientUnits="userSpaceOnUse">
      <stop offset="0" stop-color="#7cd4ff"/>
      <stop offset="0.55" stop-color="#2b7fff"/>
      <stop offset="1" stop-color="#155eef"/>
    </linearGradient>
    <linearGradient id="paper" x1="40" y1="24" x2="88" y2="96" gradientUnits="userSpaceOnUse">
      <stop offset="0" stop-color="#ffffff"/>
      <stop offset="1" stop-color="#dcecff"/>
    </linearGradient>
    <linearGradient id="cloud" x1="68" y1="64" x2="104" y2="100" gradientUnits="userSpaceOnUse">
      <stop offset="0" stop-color="#ffffff"/>
      <stop offset="1" stop-color="#cfe3ff"/>
    </linearGradient>
  </defs>
  <rect x="10" y="10" width="108" height="108" rx="30" fill="url(#bg)"/>
  <path d="M46 24c0-4.4 3.6-8 8-8h20c4.4 0 8 3.6 8 8h10c7.7 0 14 6.3 14 14v46c0 7.7-6.3 14-14 14H36c-7.7 0-14-6.3-14-14V38c0-7.7 6.3-14 14-14h10Z" fill="#0a4dbe" fill-opacity=".22"/>
  <path d="M44 22c0-5.5 4.5-10 10-10h20c5.5 0 10 4.5 10 10h7c8.8 0 16 7.2 16 16v44c0 8.8-7.2 16-16 16H37c-8.8 0-16-7.2-16-16V38c0-8.8 7.2-16 16-16h7Z" fill="url(#paper)"/>
  <rect x="49" y="20" width="30" height="12" rx="6" fill="#eaf3ff"/>
  <rect x="39" y="46" width="38" height="7" rx="3.5" fill="#8bb7ff"/>
  <rect x="39" y="60" width="50" height="7" rx="3.5" fill="#8bb7ff"/>
  <rect x="39" y="74" width="36" height="7" rx="3.5" fill="#8bb7ff"/>
  <path d="M91 59c8.3 0 15 6.6 15 14.8 0 .4 0 .8-.1 1.2 4.4 1.3 7.6 5.4 7.6 10.2 0 5.9-4.8 10.8-10.8 10.8H79.5c-7.4 0-13.5-6-13.5-13.5 0-6.8 5-12.4 11.6-13.4 1.5-5.9 6.8-10.1 13.4-10.1Z" fill="url(#cloud)"/>
  <path d="M88 76l-7 7h5v8h4v-8h5l-7-7Z" fill="#2b7fff"/>
</svg>
